<mxfile host="app.diagrams.net" agent="Mozilla/5.0 (Windows NT 10.0; Win64; x64) AppleWebKit/537.36 (KHTML, like Gecko) Chrome/141.0.0.0 Safari/537.36" version="28.2.5">
  <diagram name="Page-1" id="5ZiOnMxFXzEPqADjw09J">
    <mxGraphModel dx="1106" dy="609" grid="1" gridSize="10" guides="1" tooltips="1" connect="1" arrows="1" fold="1" page="1" pageScale="1" pageWidth="1169" pageHeight="827" math="0" shadow="0">
      <root>
        <mxCell id="0" />
        <mxCell id="1" parent="0" />
        <mxCell id="waqpgnGIKYoHZYGL3liz-4" style="edgeStyle=orthogonalEdgeStyle;rounded=0;orthogonalLoop=1;jettySize=auto;html=1;exitX=0.5;exitY=0;exitDx=0;exitDy=0;strokeColor=default;fontSize=16;" parent="1" source="ITKVBOuoMlczPPvl_M08-1" target="ITKVBOuoMlczPPvl_M08-7" edge="1">
          <mxGeometry relative="1" as="geometry">
            <mxPoint x="209" y="326" as="sourcePoint" />
            <mxPoint x="392" y="306" as="targetPoint" />
            <Array as="points">
              <mxPoint x="190" y="261" />
            </Array>
          </mxGeometry>
        </mxCell>
        <mxCell id="8ObjCxweGn8kpc9Idvh4-2" value="Request Appointment" style="edgeLabel;html=1;align=center;verticalAlign=bottom;resizable=0;points=[];fontSize=10;labelPosition=center;verticalLabelPosition=top;textShadow=0;labelBorderColor=none;labelBackgroundColor=none;" parent="waqpgnGIKYoHZYGL3liz-4" vertex="1" connectable="0">
          <mxGeometry x="0.2533" y="1" relative="1" as="geometry">
            <mxPoint x="-2" y="1" as="offset" />
          </mxGeometry>
        </mxCell>
        <mxCell id="8ObjCxweGn8kpc9Idvh4-12" style="edgeStyle=orthogonalEdgeStyle;rounded=0;orthogonalLoop=1;jettySize=auto;html=1;exitX=1;exitY=0.5;exitDx=0;exitDy=0;" parent="1" source="ITKVBOuoMlczPPvl_M08-1" target="ITKVBOuoMlczPPvl_M08-5" edge="1">
          <mxGeometry relative="1" as="geometry">
            <mxPoint x="264" y="363.04" as="sourcePoint" />
            <mxPoint x="394.00000000000296" y="472.04" as="targetPoint" />
            <Array as="points">
              <mxPoint x="209" y="363" />
              <mxPoint x="449" y="363" />
            </Array>
          </mxGeometry>
        </mxCell>
        <mxCell id="8ObjCxweGn8kpc9Idvh4-30" style="edgeStyle=orthogonalEdgeStyle;rounded=0;orthogonalLoop=1;jettySize=auto;html=1;exitX=1;exitY=1;exitDx=0;exitDy=0;" parent="1" target="ITKVBOuoMlczPPvl_M08-11" edge="1">
          <mxGeometry relative="1" as="geometry">
            <Array as="points">
              <mxPoint x="243" y="384" />
              <mxPoint x="243" y="486" />
            </Array>
            <mxPoint x="203" y="384" as="sourcePoint" />
            <mxPoint x="429" y="486" as="targetPoint" />
          </mxGeometry>
        </mxCell>
        <mxCell id="vBy_Wl7hoCfyK3llR71G-22" style="edgeStyle=orthogonalEdgeStyle;rounded=0;orthogonalLoop=1;jettySize=auto;html=1;exitX=0.25;exitY=0;exitDx=0;exitDy=0;entryX=0;entryY=0.5;entryDx=0;entryDy=0;" parent="1" source="ITKVBOuoMlczPPvl_M08-1" target="waqpgnGIKYoHZYGL3liz-43" edge="1">
          <mxGeometry relative="1" as="geometry">
            <Array as="points">
              <mxPoint x="160" y="186" />
              <mxPoint x="559" y="186" />
            </Array>
          </mxGeometry>
        </mxCell>
        <mxCell id="ITKVBOuoMlczPPvl_M08-1" value="&lt;h2&gt;&lt;font style=&quot;font-size: 16px;&quot;&gt;PATIENT&lt;/font&gt;&lt;/h2&gt;" style="rounded=0;whiteSpace=wrap;html=1;fillColor=#008a00;fontColor=#ffffff;strokeColor=#005700;" parent="1" vertex="1">
          <mxGeometry x="130" y="346" width="120" height="40" as="geometry" />
        </mxCell>
        <mxCell id="8ObjCxweGn8kpc9Idvh4-8" style="edgeStyle=orthogonalEdgeStyle;rounded=0;orthogonalLoop=1;jettySize=auto;html=1;exitX=1;exitY=0.25;exitDx=0;exitDy=0;entryX=0;entryY=1;entryDx=0;entryDy=0;" parent="1" source="ITKVBOuoMlczPPvl_M08-2" target="ITKVBOuoMlczPPvl_M08-3" edge="1">
          <mxGeometry relative="1" as="geometry">
            <Array as="points">
              <mxPoint x="209" y="426" />
              <mxPoint x="345" y="426" />
              <mxPoint x="345" y="338" />
            </Array>
          </mxGeometry>
        </mxCell>
        <mxCell id="8ObjCxweGn8kpc9Idvh4-31" style="edgeStyle=orthogonalEdgeStyle;rounded=0;orthogonalLoop=1;jettySize=auto;html=1;exitX=0.75;exitY=1;exitDx=0;exitDy=0;entryX=0.036;entryY=0.337;entryDx=0;entryDy=0;entryPerimeter=0;" parent="1" source="ITKVBOuoMlczPPvl_M08-2" target="ITKVBOuoMlczPPvl_M08-11" edge="1">
          <mxGeometry relative="1" as="geometry">
            <mxPoint x="429" y="466" as="targetPoint" />
            <Array as="points">
              <mxPoint x="179" y="473" />
            </Array>
          </mxGeometry>
        </mxCell>
        <mxCell id="vBy_Wl7hoCfyK3llR71G-45" style="edgeStyle=orthogonalEdgeStyle;rounded=0;orthogonalLoop=1;jettySize=auto;html=1;exitX=0.5;exitY=1;exitDx=0;exitDy=0;entryX=0;entryY=0.5;entryDx=0;entryDy=0;" parent="1" source="ITKVBOuoMlczPPvl_M08-2" target="ITKVBOuoMlczPPvl_M08-9" edge="1">
          <mxGeometry relative="1" as="geometry" />
        </mxCell>
        <mxCell id="ITKVBOuoMlczPPvl_M08-2" value="&lt;font style=&quot;font-size: 16px;&quot;&gt;&lt;b style=&quot;&quot;&gt;DOCTOR&lt;/b&gt;&lt;/font&gt;" style="rounded=0;whiteSpace=wrap;html=1;fillColor=#0050ef;fontColor=#ffffff;strokeColor=#001DBC;" parent="1" vertex="1">
          <mxGeometry x="89" y="426" width="120" height="40" as="geometry" />
        </mxCell>
        <mxCell id="8ObjCxweGn8kpc9Idvh4-46" style="rounded=0;orthogonalLoop=1;jettySize=auto;html=1;exitX=1;exitY=0;exitDx=0;exitDy=0;entryX=-0.003;entryY=0.096;entryDx=0;entryDy=0;entryPerimeter=0;" parent="1" target="waqpgnGIKYoHZYGL3liz-26" edge="1">
          <mxGeometry relative="1" as="geometry">
            <mxPoint x="518.7352908448419" y="308.8204019629429" as="sourcePoint" />
            <mxPoint x="829" y="264" as="targetPoint" />
          </mxGeometry>
        </mxCell>
        <mxCell id="ITKVBOuoMlczPPvl_M08-3" value="&lt;font style=&quot;font-size: 15px;&quot;&gt;Register&lt;/font&gt;" style="ellipse;whiteSpace=wrap;html=1;" parent="1" vertex="1">
          <mxGeometry x="442" y="304" width="90" height="40" as="geometry" />
        </mxCell>
        <mxCell id="ITKVBOuoMlczPPvl_M08-5" value="&lt;font style=&quot;font-size: 15px;&quot;&gt;Login&lt;/font&gt;" style="ellipse;whiteSpace=wrap;html=1;" parent="1" vertex="1">
          <mxGeometry x="445" y="352" width="90" height="40" as="geometry" />
        </mxCell>
        <mxCell id="vBy_Wl7hoCfyK3llR71G-34" style="rounded=0;orthogonalLoop=1;jettySize=auto;html=1;exitX=0;exitY=0;exitDx=0;exitDy=0;entryX=0;entryY=0.75;entryDx=0;entryDy=0;" parent="1" source="ITKVBOuoMlczPPvl_M08-7" target="waqpgnGIKYoHZYGL3liz-29" edge="1">
          <mxGeometry relative="1" as="geometry" />
        </mxCell>
        <mxCell id="ITKVBOuoMlczPPvl_M08-7" value="&lt;font style=&quot;font-size: 15px;&quot;&gt;Book Appointment&lt;/font&gt;" style="ellipse;whiteSpace=wrap;html=1;spacing=8;direction=south;" parent="1" vertex="1">
          <mxGeometry x="458" y="220" width="111" height="75" as="geometry" />
        </mxCell>
        <mxCell id="ITKVBOuoMlczPPvl_M08-8" value="&lt;span style=&quot;font-size: 15px;&quot;&gt;Cancel Appointment&lt;/span&gt;" style="ellipse;whiteSpace=wrap;html=1;" parent="1" vertex="1">
          <mxGeometry x="704" y="81" width="120" height="63" as="geometry" />
        </mxCell>
        <mxCell id="vBy_Wl7hoCfyK3llR71G-55" style="edgeStyle=orthogonalEdgeStyle;rounded=0;orthogonalLoop=1;jettySize=auto;html=1;exitX=0;exitY=1;exitDx=0;exitDy=0;entryX=0.75;entryY=1;entryDx=0;entryDy=0;" parent="1" source="ITKVBOuoMlczPPvl_M08-9" target="ITKVBOuoMlczPPvl_M08-1" edge="1">
          <mxGeometry relative="1" as="geometry" />
        </mxCell>
        <mxCell id="ITKVBOuoMlczPPvl_M08-9" value="&lt;span style=&quot;font-size: 15px;&quot;&gt;View Prescription&lt;/span&gt;" style="ellipse;whiteSpace=wrap;html=1;" parent="1" vertex="1">
          <mxGeometry x="442" y="538" width="110" height="70" as="geometry" />
        </mxCell>
        <mxCell id="ITKVBOuoMlczPPvl_M08-11" value="&lt;font style=&quot;font-size: 15px;&quot;&gt;Search&lt;/font&gt;" style="ellipse;whiteSpace=wrap;html=1;" parent="1" vertex="1">
          <mxGeometry x="435" y="448" width="110" height="73" as="geometry" />
        </mxCell>
        <mxCell id="waqpgnGIKYoHZYGL3liz-26" value="&lt;font style=&quot;font-size: 16px;&quot;&gt;Patients&lt;/font&gt;" style="shape=partialRectangle;whiteSpace=wrap;html=1;left=0;right=0;fillColor=#d5e8d4;strokeColor=#000000;fillStyle=auto;" parent="1" vertex="1">
          <mxGeometry x="829" y="265" width="120" height="40" as="geometry" />
        </mxCell>
        <mxCell id="waqpgnGIKYoHZYGL3liz-28" value="&lt;font style=&quot;font-size: 16px;&quot;&gt;Doctors&lt;/font&gt;" style="shape=partialRectangle;whiteSpace=wrap;html=1;left=0;right=0;fillColor=#dae8fc;strokeColor=#000000;fillStyle=auto;fontSize=14;" parent="1" vertex="1">
          <mxGeometry x="824" y="386" width="125" height="40" as="geometry" />
        </mxCell>
        <mxCell id="waqpgnGIKYoHZYGL3liz-29" value="&lt;font style=&quot;font-size: 16px;&quot;&gt;Appointments&lt;/font&gt;" style="shape=partialRectangle;whiteSpace=wrap;html=1;left=0;right=0;fillColor=#ffe6cc;strokeColor=#000000;fillStyle=auto;fontSize=14;" parent="1" vertex="1">
          <mxGeometry x="829" y="186" width="120" height="40" as="geometry" />
        </mxCell>
        <mxCell id="vBy_Wl7hoCfyK3llR71G-24" style="edgeStyle=orthogonalEdgeStyle;rounded=0;orthogonalLoop=1;jettySize=auto;html=1;exitX=1;exitY=0;exitDx=0;exitDy=0;" parent="1" source="waqpgnGIKYoHZYGL3liz-43" edge="1">
          <mxGeometry relative="1" as="geometry">
            <mxPoint x="849" y="186" as="targetPoint" />
            <Array as="points">
              <mxPoint x="849" y="161" />
              <mxPoint x="849" y="186" />
            </Array>
          </mxGeometry>
        </mxCell>
        <mxCell id="vBy_Wl7hoCfyK3llR71G-37" style="rounded=0;orthogonalLoop=1;jettySize=auto;html=1;exitX=0.617;exitY=0.006;exitDx=0;exitDy=0;entryX=0;entryY=0.5;entryDx=0;entryDy=0;exitPerimeter=0;" parent="1" source="waqpgnGIKYoHZYGL3liz-43" target="ITKVBOuoMlczPPvl_M08-8" edge="1">
          <mxGeometry relative="1" as="geometry" />
        </mxCell>
        <mxCell id="waqpgnGIKYoHZYGL3liz-43" value="&lt;font style=&quot;font-size: 15px;&quot;&gt;View Appointment&lt;/font&gt;" style="ellipse;whiteSpace=wrap;html=1;" parent="1" vertex="1">
          <mxGeometry x="563" y="151" width="110" height="70" as="geometry" />
        </mxCell>
        <mxCell id="vBy_Wl7hoCfyK3llR71G-50" style="rounded=0;orthogonalLoop=1;jettySize=auto;html=1;exitX=0;exitY=0.25;exitDx=0;exitDy=0;entryX=0.96;entryY=0.284;entryDx=0;entryDy=0;entryPerimeter=0;" parent="1" source="4A9rfbyklD0xVL-0n6kL-1" target="ITKVBOuoMlczPPvl_M08-9" edge="1">
          <mxGeometry relative="1" as="geometry" />
        </mxCell>
        <mxCell id="4A9rfbyklD0xVL-0n6kL-11" style="edgeStyle=orthogonalEdgeStyle;rounded=0;orthogonalLoop=1;jettySize=auto;html=1;exitX=0.002;exitY=0.645;exitDx=0;exitDy=0;entryX=0;entryY=0.5;entryDx=0;entryDy=0;exitPerimeter=0;" parent="1" source="ITKVBOuoMlczPPvl_M08-1" target="8ObjCxweGn8kpc9Idvh4-1" edge="1">
          <mxGeometry relative="1" as="geometry">
            <mxPoint x="115" y="371" as="sourcePoint" />
            <Array as="points">
              <mxPoint x="75" y="372" />
              <mxPoint x="75" y="711" />
            </Array>
          </mxGeometry>
        </mxCell>
        <mxCell id="8ObjCxweGn8kpc9Idvh4-1" value="&lt;h2&gt;&lt;font style=&quot;font-size: 16px;&quot;&gt;CAMERA&lt;/font&gt;&lt;/h2&gt;" style="rounded=0;whiteSpace=wrap;html=1;fillColor=#76608a;strokeColor=#432D57;fontColor=#ffffff;" parent="1" vertex="1">
          <mxGeometry x="95" y="691" width="120" height="40" as="geometry" />
        </mxCell>
        <mxCell id="8ObjCxweGn8kpc9Idvh4-4" style="edgeStyle=orthogonalEdgeStyle;rounded=0;orthogonalLoop=1;jettySize=auto;html=1;" parent="1" edge="1">
          <mxGeometry relative="1" as="geometry">
            <mxPoint x="199" y="346" as="sourcePoint" />
            <mxPoint x="445" y="326" as="targetPoint" />
            <Array as="points">
              <mxPoint x="199" y="326" />
              <mxPoint x="445" y="326" />
            </Array>
          </mxGeometry>
        </mxCell>
        <mxCell id="8ObjCxweGn8kpc9Idvh4-5" value="Registration Data" style="edgeLabel;html=1;align=center;verticalAlign=bottom;resizable=0;points=[];fontSize=10;labelPosition=center;verticalLabelPosition=top;textShadow=0;labelBorderColor=none;labelBackgroundColor=none;" parent="1" vertex="1" connectable="0">
          <mxGeometry x="259" y="324" as="geometry">
            <mxPoint x="20" y="1" as="offset" />
          </mxGeometry>
        </mxCell>
        <mxCell id="8ObjCxweGn8kpc9Idvh4-9" value="Registration Data" style="edgeLabel;html=1;align=center;verticalAlign=bottom;resizable=0;points=[];fontSize=10;labelPosition=center;verticalLabelPosition=top;textShadow=0;labelBorderColor=none;labelBackgroundColor=none;" parent="1" vertex="1" connectable="0">
          <mxGeometry x="294" y="425" as="geometry" />
        </mxCell>
        <mxCell id="8ObjCxweGn8kpc9Idvh4-10" style="edgeStyle=orthogonalEdgeStyle;rounded=0;orthogonalLoop=1;jettySize=auto;html=1;entryX=0;entryY=0.5;entryDx=0;entryDy=0;exitX=1;exitY=0.75;exitDx=0;exitDy=0;" parent="1" source="ITKVBOuoMlczPPvl_M08-2" target="ITKVBOuoMlczPPvl_M08-5" edge="1">
          <mxGeometry relative="1" as="geometry">
            <mxPoint x="269" y="480" as="sourcePoint" />
            <mxPoint x="389" y="426" as="targetPoint" />
            <Array as="points">
              <mxPoint x="209" y="436" />
              <mxPoint x="349" y="436" />
              <mxPoint x="349" y="372" />
            </Array>
          </mxGeometry>
        </mxCell>
        <mxCell id="8ObjCxweGn8kpc9Idvh4-11" value="Login Credentials" style="edgeLabel;html=1;align=center;verticalAlign=bottom;resizable=0;points=[];fontSize=10;labelPosition=center;verticalLabelPosition=top;textShadow=0;labelBorderColor=none;labelBackgroundColor=none;" parent="1" vertex="1" connectable="0">
          <mxGeometry x="298" y="452" as="geometry" />
        </mxCell>
        <mxCell id="8ObjCxweGn8kpc9Idvh4-13" value="Login Credentials" style="edgeLabel;html=1;align=center;verticalAlign=bottom;resizable=0;points=[];fontSize=10;labelPosition=center;verticalLabelPosition=top;textShadow=0;labelBorderColor=none;labelBackgroundColor=none;" parent="1" vertex="1" connectable="0">
          <mxGeometry x="298" y="379" as="geometry" />
        </mxCell>
        <mxCell id="8ObjCxweGn8kpc9Idvh4-25" value="Confirmation" style="edgeLabel;html=1;align=center;verticalAlign=bottom;resizable=0;points=[];fontSize=10;labelPosition=center;verticalLabelPosition=top;textShadow=0;labelBorderColor=none;rotation=-5;labelBackgroundColor=none;" parent="1" vertex="1" connectable="0">
          <mxGeometry x="656" y="281" as="geometry">
            <mxPoint x="-20" y="31" as="offset" />
          </mxGeometry>
        </mxCell>
        <mxCell id="8ObjCxweGn8kpc9Idvh4-32" value="Search Criteria" style="edgeLabel;html=1;align=center;verticalAlign=bottom;resizable=0;points=[];fontSize=10;labelPosition=center;verticalLabelPosition=top;textShadow=0;labelBorderColor=none;" parent="1" vertex="1" connectable="0">
          <mxGeometry x="317" y="472" as="geometry" />
        </mxCell>
        <mxCell id="8ObjCxweGn8kpc9Idvh4-34" style="rounded=0;orthogonalLoop=1;jettySize=auto;html=1;exitX=0.984;exitY=0.397;exitDx=0;exitDy=0;exitPerimeter=0;entryX=0.75;entryY=1;entryDx=0;entryDy=0;" parent="1" source="ITKVBOuoMlczPPvl_M08-11" target="waqpgnGIKYoHZYGL3liz-26" edge="1">
          <mxGeometry relative="1" as="geometry">
            <mxPoint x="879" y="256" as="targetPoint" />
          </mxGeometry>
        </mxCell>
        <mxCell id="8ObjCxweGn8kpc9Idvh4-35" value="Forward Details" style="edgeLabel;html=1;align=center;verticalAlign=bottom;resizable=0;points=[];fontSize=10;labelPosition=center;verticalLabelPosition=top;textShadow=0;labelBorderColor=none;rotation=-25;labelBackgroundColor=none;" parent="1" vertex="1" connectable="0">
          <mxGeometry x="619" y="425" as="geometry">
            <mxPoint x="-8" y="32" as="offset" />
          </mxGeometry>
        </mxCell>
        <mxCell id="8ObjCxweGn8kpc9Idvh4-36" style="rounded=0;orthogonalLoop=1;jettySize=auto;html=1;entryX=0.953;entryY=0.26;entryDx=0;entryDy=0;entryPerimeter=0;" parent="1" target="ITKVBOuoMlczPPvl_M08-11" edge="1">
          <mxGeometry relative="1" as="geometry">
            <mxPoint x="909" y="306" as="sourcePoint" />
            <mxPoint x="544.81" y="479.4" as="targetPoint" />
          </mxGeometry>
        </mxCell>
        <mxCell id="8ObjCxweGn8kpc9Idvh4-39" value="Validated User Profile" style="edgeLabel;html=1;align=center;verticalAlign=bottom;resizable=0;points=[];fontSize=10;labelPosition=center;verticalLabelPosition=top;textShadow=0;labelBorderColor=none;rotation=-5;labelBackgroundColor=none;" parent="1" vertex="1" connectable="0">
          <mxGeometry x="633" y="262" as="geometry">
            <mxPoint x="-8" y="32" as="offset" />
          </mxGeometry>
        </mxCell>
        <mxCell id="8ObjCxweGn8kpc9Idvh4-51" style="rounded=0;orthogonalLoop=1;jettySize=auto;html=1;exitX=0;exitY=0.25;exitDx=0;exitDy=0;entryX=0.943;entryY=0.244;entryDx=0;entryDy=0;entryPerimeter=0;" parent="1" edge="1">
          <mxGeometry relative="1" as="geometry">
            <mxPoint x="829" y="274" as="sourcePoint" />
            <mxPoint x="526.8699999999999" y="312.76" as="targetPoint" />
          </mxGeometry>
        </mxCell>
        <mxCell id="vBy_Wl7hoCfyK3llR71G-1" style="rounded=0;orthogonalLoop=1;jettySize=auto;html=1;exitX=1;exitY=0.5;exitDx=0;exitDy=0;entryX=0;entryY=0.25;entryDx=0;entryDy=0;" parent="1" edge="1">
          <mxGeometry relative="1" as="geometry">
            <mxPoint x="535" y="377" as="sourcePoint" />
            <mxPoint x="824" y="401" as="targetPoint" />
          </mxGeometry>
        </mxCell>
        <mxCell id="vBy_Wl7hoCfyK3llR71G-2" style="rounded=1;orthogonalLoop=1;jettySize=auto;html=1;exitX=0;exitY=0.5;exitDx=0;exitDy=0;curved=0;entryX=0.936;entryY=0.715;entryDx=0;entryDy=0;entryPerimeter=0;" parent="1" source="waqpgnGIKYoHZYGL3liz-28" target="ITKVBOuoMlczPPvl_M08-5" edge="1">
          <mxGeometry relative="1" as="geometry">
            <mxPoint x="869" y="403" as="sourcePoint" />
            <mxPoint x="484" y="430" as="targetPoint" />
          </mxGeometry>
        </mxCell>
        <mxCell id="vBy_Wl7hoCfyK3llR71G-3" value="Validated User Profile" style="edgeLabel;html=1;align=center;verticalAlign=bottom;resizable=0;points=[];fontSize=10;labelPosition=center;verticalLabelPosition=top;textShadow=0;labelBorderColor=none;rotation=5;labelBackgroundColor=none;" parent="1" vertex="1" connectable="0">
          <mxGeometry x="619" y="352" as="geometry">
            <mxPoint x="-8" y="32" as="offset" />
          </mxGeometry>
        </mxCell>
        <mxCell id="vBy_Wl7hoCfyK3llR71G-4" value="Login Status" style="edgeLabel;html=1;align=center;verticalAlign=bottom;resizable=0;points=[];fontSize=10;labelPosition=center;verticalLabelPosition=top;textShadow=0;labelBorderColor=none;rotation=5;labelBackgroundColor=none;" parent="1" vertex="1" connectable="0">
          <mxGeometry x="791" y="386" as="geometry">
            <mxPoint x="-8" y="32" as="offset" />
          </mxGeometry>
        </mxCell>
        <mxCell id="vBy_Wl7hoCfyK3llR71G-6" value="Search Results" style="edgeLabel;html=1;align=center;verticalAlign=bottom;resizable=0;points=[];fontSize=10;labelPosition=center;verticalLabelPosition=top;textShadow=0;labelBorderColor=none;rotation=-25;labelBackgroundColor=none;" parent="1" vertex="1" connectable="0">
          <mxGeometry x="828" y="307" as="geometry">
            <mxPoint x="-8" y="32" as="offset" />
          </mxGeometry>
        </mxCell>
        <mxCell id="vBy_Wl7hoCfyK3llR71G-9" style="rounded=0;orthogonalLoop=1;jettySize=auto;html=1;exitX=1;exitY=0;exitDx=0;exitDy=0;" parent="1" source="ITKVBOuoMlczPPvl_M08-5" edge="1">
          <mxGeometry relative="1" as="geometry">
            <mxPoint x="535" y="360" as="sourcePoint" />
            <mxPoint x="829" y="296" as="targetPoint" />
          </mxGeometry>
        </mxCell>
        <mxCell id="vBy_Wl7hoCfyK3llR71G-10" style="rounded=0;orthogonalLoop=1;jettySize=auto;html=1;entryX=0.952;entryY=0.25;entryDx=0;entryDy=0;entryPerimeter=0;" parent="1" target="ITKVBOuoMlczPPvl_M08-5" edge="1">
          <mxGeometry relative="1" as="geometry">
            <mxPoint x="829" y="301" as="sourcePoint" />
            <mxPoint x="539" y="363" as="targetPoint" />
          </mxGeometry>
        </mxCell>
        <mxCell id="vBy_Wl7hoCfyK3llR71G-11" value="Validated User Profile" style="edgeLabel;html=1;align=center;verticalAlign=bottom;resizable=0;points=[];fontSize=10;labelPosition=center;verticalLabelPosition=top;textShadow=0;labelBorderColor=none;rotation=-10;labelBackgroundColor=none;" parent="1" vertex="1" connectable="0">
          <mxGeometry x="739" y="282" as="geometry">
            <mxPoint x="-8" y="32" as="offset" />
          </mxGeometry>
        </mxCell>
        <mxCell id="vBy_Wl7hoCfyK3llR71G-12" value="Login Status" style="edgeLabel;html=1;align=center;verticalAlign=bottom;resizable=0;points=[];fontSize=10;labelPosition=center;verticalLabelPosition=top;textShadow=0;labelBorderColor=none;rotation=-10;labelBackgroundColor=none;" parent="1" vertex="1" connectable="0">
          <mxGeometry x="759" y="301" as="geometry">
            <mxPoint x="-20" y="31" as="offset" />
          </mxGeometry>
        </mxCell>
        <mxCell id="vBy_Wl7hoCfyK3llR71G-13" style="rounded=0;orthogonalLoop=1;jettySize=auto;html=1;exitX=1;exitY=0.5;exitDx=0;exitDy=0;entryX=0;entryY=0;entryDx=0;entryDy=0;" parent="1" target="waqpgnGIKYoHZYGL3liz-28" edge="1">
          <mxGeometry relative="1" as="geometry">
            <mxPoint x="532" y="328" as="sourcePoint" />
            <mxPoint x="821" y="352" as="targetPoint" />
          </mxGeometry>
        </mxCell>
        <mxCell id="vBy_Wl7hoCfyK3llR71G-14" style="rounded=0;orthogonalLoop=1;jettySize=auto;html=1;entryX=0.949;entryY=0.75;entryDx=0;entryDy=0;entryPerimeter=0;exitX=-0.001;exitY=0.119;exitDx=0;exitDy=0;exitPerimeter=0;" parent="1" source="waqpgnGIKYoHZYGL3liz-28" target="ITKVBOuoMlczPPvl_M08-3" edge="1">
          <mxGeometry relative="1" as="geometry">
            <mxPoint x="819" y="391" as="sourcePoint" />
            <mxPoint x="529" y="334" as="targetPoint" />
          </mxGeometry>
        </mxCell>
        <mxCell id="vBy_Wl7hoCfyK3llR71G-15" value="Validated User Profile" style="edgeLabel;html=1;align=center;verticalAlign=bottom;resizable=0;points=[];fontSize=10;labelPosition=center;verticalLabelPosition=top;textShadow=0;labelBorderColor=none;rotation=10;labelBackgroundColor=none;" parent="1" vertex="1" connectable="0">
          <mxGeometry x="720" y="332" as="geometry">
            <mxPoint x="-8" y="32" as="offset" />
          </mxGeometry>
        </mxCell>
        <mxCell id="vBy_Wl7hoCfyK3llR71G-17" value="Confirmation" style="edgeLabel;html=1;align=center;verticalAlign=bottom;resizable=0;points=[];fontSize=10;labelPosition=center;verticalLabelPosition=top;textShadow=0;labelBorderColor=none;rotation=10;" parent="1" vertex="1" connectable="0">
          <mxGeometry x="709" y="352" as="geometry">
            <mxPoint x="-8" y="32" as="offset" />
          </mxGeometry>
        </mxCell>
        <mxCell id="vBy_Wl7hoCfyK3llR71G-18" style="rounded=0;orthogonalLoop=1;jettySize=auto;html=1;exitX=0.979;exitY=0.699;exitDx=0;exitDy=0;exitPerimeter=0;entryX=0.145;entryY=1.029;entryDx=0;entryDy=0;entryPerimeter=0;" parent="1" source="ITKVBOuoMlczPPvl_M08-11" target="waqpgnGIKYoHZYGL3liz-28" edge="1">
          <mxGeometry relative="1" as="geometry">
            <mxPoint x="927" y="426" as="targetPoint" />
            <mxPoint x="551" y="601" as="sourcePoint" />
          </mxGeometry>
        </mxCell>
        <mxCell id="vBy_Wl7hoCfyK3llR71G-19" style="rounded=0;orthogonalLoop=1;jettySize=auto;html=1;exitX=0.365;exitY=1.014;exitDx=0;exitDy=0;entryX=1;entryY=1;entryDx=0;entryDy=0;exitPerimeter=0;" parent="1" source="waqpgnGIKYoHZYGL3liz-28" target="ITKVBOuoMlczPPvl_M08-11" edge="1">
          <mxGeometry relative="1" as="geometry">
            <mxPoint x="538" y="513.5" as="targetPoint" />
            <mxPoint x="837" y="438.5" as="sourcePoint" />
          </mxGeometry>
        </mxCell>
        <mxCell id="vBy_Wl7hoCfyK3llR71G-20" value="Forward Details" style="edgeLabel;html=1;align=center;verticalAlign=bottom;resizable=0;points=[];fontSize=10;labelPosition=center;verticalLabelPosition=top;textShadow=0;labelBorderColor=none;rotation=-15;labelBackgroundColor=none;" parent="1" vertex="1" connectable="0">
          <mxGeometry x="699" y="428" as="geometry">
            <mxPoint x="-8" y="32" as="offset" />
          </mxGeometry>
        </mxCell>
        <mxCell id="vBy_Wl7hoCfyK3llR71G-21" value="Search Results" style="edgeLabel;html=1;align=center;verticalAlign=bottom;resizable=0;points=[];fontSize=10;labelPosition=center;verticalLabelPosition=top;textShadow=0;labelBorderColor=none;rotation=-15;labelBackgroundColor=none;" parent="1" vertex="1" connectable="0">
          <mxGeometry x="709" y="450" as="geometry">
            <mxPoint x="-8" y="32" as="offset" />
          </mxGeometry>
        </mxCell>
        <mxCell id="vBy_Wl7hoCfyK3llR71G-23" style="edgeStyle=orthogonalEdgeStyle;rounded=0;orthogonalLoop=1;jettySize=auto;html=1;exitX=0.25;exitY=0;exitDx=0;exitDy=0;entryX=0.055;entryY=0.357;entryDx=0;entryDy=0;entryPerimeter=0;" parent="1" target="waqpgnGIKYoHZYGL3liz-43" edge="1">
          <mxGeometry relative="1" as="geometry">
            <mxPoint x="119" y="426" as="sourcePoint" />
            <mxPoint x="559" y="176" as="targetPoint" />
            <Array as="points">
              <mxPoint x="119" y="176" />
            </Array>
          </mxGeometry>
        </mxCell>
        <mxCell id="vBy_Wl7hoCfyK3llR71G-25" style="edgeStyle=orthogonalEdgeStyle;rounded=0;orthogonalLoop=1;jettySize=auto;html=1;exitX=0.081;exitY=-0.013;exitDx=0;exitDy=0;entryX=0.906;entryY=0.206;entryDx=0;entryDy=0;exitPerimeter=0;entryPerimeter=0;" parent="1" source="waqpgnGIKYoHZYGL3liz-29" target="waqpgnGIKYoHZYGL3liz-43" edge="1">
          <mxGeometry relative="1" as="geometry">
            <mxPoint x="669" y="166" as="targetPoint" />
            <mxPoint x="871" y="191" as="sourcePoint" />
            <Array as="points">
              <mxPoint x="839" y="166" />
              <mxPoint x="669" y="165" />
            </Array>
          </mxGeometry>
        </mxCell>
        <mxCell id="vBy_Wl7hoCfyK3llR71G-26" value="Retrieve&amp;nbsp;" style="edgeLabel;html=1;align=center;verticalAlign=bottom;resizable=0;points=[];fontSize=10;labelPosition=center;verticalLabelPosition=top;textShadow=0;labelBorderColor=none;labelBackgroundColor=none;" parent="1" vertex="1" connectable="0">
          <mxGeometry x="710" y="181" as="geometry" />
        </mxCell>
        <mxCell id="vBy_Wl7hoCfyK3llR71G-27" value="Check Avaibility" style="edgeLabel;html=1;align=center;verticalAlign=bottom;resizable=0;points=[];fontSize=10;labelPosition=center;verticalLabelPosition=top;textShadow=0;labelBorderColor=none;labelBackgroundColor=none;" parent="1" vertex="1" connectable="0">
          <mxGeometry x="720" y="161" as="geometry" />
        </mxCell>
        <mxCell id="vBy_Wl7hoCfyK3llR71G-28" style="edgeStyle=orthogonalEdgeStyle;rounded=0;orthogonalLoop=1;jettySize=auto;html=1;entryX=0.325;entryY=0;entryDx=0;entryDy=0;entryPerimeter=0;" parent="1" source="waqpgnGIKYoHZYGL3liz-43" target="ITKVBOuoMlczPPvl_M08-1" edge="1">
          <mxGeometry relative="1" as="geometry">
            <mxPoint x="565" y="196" as="sourcePoint" />
            <mxPoint x="166" y="352" as="targetPoint" />
            <Array as="points">
              <mxPoint x="169" y="201" />
            </Array>
          </mxGeometry>
        </mxCell>
        <mxCell id="vBy_Wl7hoCfyK3llR71G-29" value="Show Results" style="edgeLabel;html=1;align=center;verticalAlign=bottom;resizable=0;points=[];fontSize=10;labelPosition=center;verticalLabelPosition=top;textShadow=0;labelBorderColor=none;labelBackgroundColor=none;" parent="1" vertex="1" connectable="0">
          <mxGeometry x="360" y="216" as="geometry" />
        </mxCell>
        <mxCell id="vBy_Wl7hoCfyK3llR71G-30" value="Send Request" style="edgeLabel;html=1;align=center;verticalAlign=bottom;resizable=0;points=[];fontSize=10;labelPosition=center;verticalLabelPosition=top;textShadow=0;labelBorderColor=none;labelBackgroundColor=none;" parent="1" vertex="1" connectable="0">
          <mxGeometry x="329" y="176" as="geometry" />
        </mxCell>
        <mxCell id="vBy_Wl7hoCfyK3llR71G-31" value="Send Request" style="edgeLabel;html=1;align=center;verticalAlign=bottom;resizable=0;points=[];fontSize=10;labelPosition=center;verticalLabelPosition=top;textShadow=0;labelBorderColor=none;rotation=-90;labelBackgroundColor=none;" parent="1" vertex="1" connectable="0">
          <mxGeometry x="160" y="265" as="geometry" />
        </mxCell>
        <mxCell id="vBy_Wl7hoCfyK3llR71G-32" style="edgeStyle=orthogonalEdgeStyle;rounded=0;orthogonalLoop=1;jettySize=auto;html=1;" parent="1" source="waqpgnGIKYoHZYGL3liz-43" edge="1">
          <mxGeometry relative="1" as="geometry">
            <mxPoint x="508" y="161" as="sourcePoint" />
            <mxPoint x="109" y="426" as="targetPoint" />
            <Array as="points">
              <mxPoint x="109" y="156" />
              <mxPoint x="109" y="426" />
            </Array>
          </mxGeometry>
        </mxCell>
        <mxCell id="vBy_Wl7hoCfyK3llR71G-33" value="Show Results" style="edgeLabel;html=1;align=center;verticalAlign=bottom;resizable=0;points=[];fontSize=10;labelPosition=center;verticalLabelPosition=top;textShadow=0;labelBorderColor=none;labelBackgroundColor=none;" parent="1" vertex="1" connectable="0">
          <mxGeometry x="269" y="156" as="geometry" />
        </mxCell>
        <mxCell id="vBy_Wl7hoCfyK3llR71G-35" value="New Appointment" style="edgeLabel;html=1;align=center;verticalAlign=bottom;resizable=0;points=[];fontSize=10;labelPosition=center;verticalLabelPosition=top;textShadow=0;labelBorderColor=none;rotation=-5;labelBackgroundColor=none;" parent="1" vertex="1" connectable="0">
          <mxGeometry x="707" y="238" as="geometry" />
        </mxCell>
        <mxCell id="vBy_Wl7hoCfyK3llR71G-38" style="rounded=0;orthogonalLoop=1;jettySize=auto;html=1;exitX=0.048;exitY=0.315;exitDx=0;exitDy=0;entryX=0.048;entryY=0.315;entryDx=0;entryDy=0;entryPerimeter=0;exitPerimeter=0;" parent="1" source="ITKVBOuoMlczPPvl_M08-8" edge="1">
          <mxGeometry relative="1" as="geometry">
            <mxPoint x="691" y="113" as="sourcePoint" />
            <mxPoint x="605" y="151" as="targetPoint" />
          </mxGeometry>
        </mxCell>
        <mxCell id="vBy_Wl7hoCfyK3llR71G-39" value="Confirmation" style="edgeLabel;html=1;align=center;verticalAlign=bottom;resizable=0;points=[];fontSize=10;labelPosition=center;verticalLabelPosition=top;textShadow=0;labelBorderColor=none;rotation=-25;" parent="1" vertex="1" connectable="0">
          <mxGeometry x="657" y="126" as="geometry" />
        </mxCell>
        <mxCell id="vBy_Wl7hoCfyK3llR71G-40" value="Request" style="edgeLabel;html=1;align=center;verticalAlign=bottom;resizable=0;points=[];fontSize=10;labelPosition=center;verticalLabelPosition=top;textShadow=0;labelBorderColor=none;rotation=-25;" parent="1" vertex="1" connectable="0">
          <mxGeometry x="673" y="147" as="geometry" />
        </mxCell>
        <mxCell id="vBy_Wl7hoCfyK3llR71G-41" style="rounded=0;orthogonalLoop=1;jettySize=auto;html=1;exitX=1.009;exitY=0.465;exitDx=0;exitDy=0;exitPerimeter=0;" parent="1" source="ITKVBOuoMlczPPvl_M08-8" edge="1">
          <mxGeometry relative="1" as="geometry">
            <mxPoint x="825" y="111" as="sourcePoint" />
            <mxPoint x="945" y="185" as="targetPoint" />
          </mxGeometry>
        </mxCell>
        <mxCell id="vBy_Wl7hoCfyK3llR71G-42" value="Delete" style="edgeLabel;html=1;align=center;verticalAlign=bottom;resizable=0;points=[];fontSize=10;labelPosition=center;verticalLabelPosition=top;textShadow=0;labelBorderColor=none;rotation=32;" parent="1" vertex="1" connectable="0">
          <mxGeometry x="865" y="136" as="geometry" />
        </mxCell>
        <mxCell id="vBy_Wl7hoCfyK3llR71G-43" style="rounded=0;orthogonalLoop=1;jettySize=auto;html=1;entryX=0.986;entryY=0.602;entryDx=0;entryDy=0;entryPerimeter=0;exitX=0.798;exitY=-0.003;exitDx=0;exitDy=0;exitPerimeter=0;" parent="1" source="waqpgnGIKYoHZYGL3liz-29" target="ITKVBOuoMlczPPvl_M08-8" edge="1">
          <mxGeometry relative="1" as="geometry">
            <mxPoint x="941" y="193" as="sourcePoint" />
            <mxPoint x="824" y="119" as="targetPoint" />
          </mxGeometry>
        </mxCell>
        <mxCell id="vBy_Wl7hoCfyK3llR71G-44" value="Confirmation" style="edgeLabel;html=1;align=center;verticalAlign=bottom;resizable=0;points=[];fontSize=10;labelPosition=center;verticalLabelPosition=top;textShadow=0;labelBorderColor=none;rotation=32;" parent="1" vertex="1" connectable="0">
          <mxGeometry x="855" y="158" as="geometry" />
        </mxCell>
        <mxCell id="vBy_Wl7hoCfyK3llR71G-46" style="edgeStyle=orthogonalEdgeStyle;rounded=0;orthogonalLoop=1;jettySize=auto;html=1;exitX=0.75;exitY=1;exitDx=0;exitDy=0;entryX=0.016;entryY=0.369;entryDx=0;entryDy=0;entryPerimeter=0;" parent="1" source="ITKVBOuoMlczPPvl_M08-1" target="ITKVBOuoMlczPPvl_M08-9" edge="1">
          <mxGeometry relative="1" as="geometry">
            <Array as="points">
              <mxPoint x="235" y="386" />
              <mxPoint x="235" y="564" />
            </Array>
          </mxGeometry>
        </mxCell>
        <mxCell id="vBy_Wl7hoCfyK3llR71G-47" value="Prescription Request" style="edgeLabel;html=1;align=center;verticalAlign=bottom;resizable=0;points=[];fontSize=10;labelPosition=center;verticalLabelPosition=top;textShadow=0;labelBorderColor=none;labelBackgroundColor=none;" parent="1" vertex="1" connectable="0">
          <mxGeometry x="335" y="563" as="geometry" />
        </mxCell>
        <mxCell id="vBy_Wl7hoCfyK3llR71G-48" value="Prescription Request" style="edgeLabel;html=1;align=center;verticalAlign=bottom;resizable=0;points=[];fontSize=10;labelPosition=center;verticalLabelPosition=top;textShadow=0;labelBorderColor=none;labelBackgroundColor=none;" parent="1" vertex="1" connectable="0">
          <mxGeometry x="373" y="588" as="geometry" />
        </mxCell>
        <mxCell id="vBy_Wl7hoCfyK3llR71G-49" style="rounded=0;orthogonalLoop=1;jettySize=auto;html=1;exitX=1;exitY=0.5;exitDx=0;exitDy=0;entryX=0;entryY=0.5;entryDx=0;entryDy=0;" parent="1" source="ITKVBOuoMlczPPvl_M08-9" target="4A9rfbyklD0xVL-0n6kL-1" edge="1">
          <mxGeometry relative="1" as="geometry">
            <mxPoint x="552" y="569" as="sourcePoint" />
            <mxPoint x="625" y="531" as="targetPoint" />
          </mxGeometry>
        </mxCell>
        <mxCell id="vBy_Wl7hoCfyK3llR71G-53" value="Verify Status" style="edgeLabel;html=1;align=center;verticalAlign=bottom;resizable=0;points=[];fontSize=10;labelPosition=center;verticalLabelPosition=top;textShadow=0;labelBorderColor=none;rotation=-10;labelBackgroundColor=none;" parent="1" vertex="1" connectable="0">
          <mxGeometry x="665" y="531" as="geometry">
            <mxPoint x="-8" y="32" as="offset" />
          </mxGeometry>
        </mxCell>
        <mxCell id="vBy_Wl7hoCfyK3llR71G-54" value="Retrieve Prescription Information" style="edgeLabel;html=1;align=center;verticalAlign=bottom;resizable=0;points=[];fontSize=10;labelPosition=center;verticalLabelPosition=top;textShadow=0;labelBorderColor=none;rotation=-10;labelBackgroundColor=none;" parent="1" vertex="1" connectable="0">
          <mxGeometry x="673" y="495" as="geometry">
            <mxPoint x="-8" y="32" as="offset" />
          </mxGeometry>
        </mxCell>
        <mxCell id="vBy_Wl7hoCfyK3llR71G-56" value="Show Results" style="edgeLabel;html=1;align=center;verticalAlign=bottom;resizable=0;points=[];fontSize=10;labelPosition=center;verticalLabelPosition=top;textShadow=0;labelBorderColor=none;labelBackgroundColor=none;" parent="1" vertex="1" connectable="0">
          <mxGeometry x="360" y="621" as="geometry">
            <mxPoint x="14" y="22" as="offset" />
          </mxGeometry>
        </mxCell>
        <mxCell id="vBy_Wl7hoCfyK3llR71G-57" style="edgeStyle=orthogonalEdgeStyle;rounded=0;orthogonalLoop=1;jettySize=auto;html=1;exitX=0.5;exitY=1;exitDx=0;exitDy=0;entryX=0.651;entryY=0.953;entryDx=0;entryDy=0;entryPerimeter=0;" parent="1" source="ITKVBOuoMlczPPvl_M08-9" target="ITKVBOuoMlczPPvl_M08-2" edge="1">
          <mxGeometry relative="1" as="geometry" />
        </mxCell>
        <mxCell id="vBy_Wl7hoCfyK3llR71G-58" value="Show Results" style="edgeLabel;html=1;align=center;verticalAlign=bottom;resizable=0;points=[];fontSize=10;labelPosition=center;verticalLabelPosition=top;textShadow=0;labelBorderColor=none;labelBackgroundColor=none;" parent="1" vertex="1" connectable="0">
          <mxGeometry x="391" y="590" as="geometry">
            <mxPoint x="14" y="22" as="offset" />
          </mxGeometry>
        </mxCell>
        <mxCell id="4A9rfbyklD0xVL-0n6kL-1" value="&lt;font style=&quot;font-size: 16px;&quot;&gt;Appointments&lt;/font&gt;" style="shape=partialRectangle;whiteSpace=wrap;html=1;left=0;right=0;fillColor=#ffe6cc;strokeColor=#000000;fillStyle=auto;fontSize=14;" parent="1" vertex="1">
          <mxGeometry x="829" y="486" width="120" height="40" as="geometry" />
        </mxCell>
        <mxCell id="4A9rfbyklD0xVL-0n6kL-2" value="&lt;font style=&quot;font-size: 16px;&quot;&gt;Exercises&lt;/font&gt;" style="shape=partialRectangle;whiteSpace=wrap;html=1;left=0;right=0;fillColor=#e1d5e7;strokeColor=#9673a6;fillStyle=auto;fontSize=14;" parent="1" vertex="1">
          <mxGeometry x="829" y="691" width="120" height="40" as="geometry" />
        </mxCell>
        <mxCell id="4A9rfbyklD0xVL-0n6kL-3" value="&lt;span style=&quot;font-size: 15px;&quot;&gt;Verify Pose&lt;/span&gt;" style="ellipse;whiteSpace=wrap;html=1;" parent="1" vertex="1">
          <mxGeometry x="442" y="676" width="110" height="70" as="geometry" />
        </mxCell>
        <mxCell id="4A9rfbyklD0xVL-0n6kL-4" style="edgeStyle=orthogonalEdgeStyle;rounded=0;orthogonalLoop=1;jettySize=auto;html=1;exitX=1;exitY=0.25;exitDx=0;exitDy=0;entryX=0.027;entryY=0.357;entryDx=0;entryDy=0;entryPerimeter=0;" parent="1" source="8ObjCxweGn8kpc9Idvh4-1" target="4A9rfbyklD0xVL-0n6kL-3" edge="1">
          <mxGeometry relative="1" as="geometry" />
        </mxCell>
        <mxCell id="4A9rfbyklD0xVL-0n6kL-6" style="edgeStyle=orthogonalEdgeStyle;rounded=0;orthogonalLoop=1;jettySize=auto;html=1;exitX=0;exitY=0.5;exitDx=0;exitDy=0;entryX=0;entryY=0.5;entryDx=0;entryDy=0;" parent="1" target="4A9rfbyklD0xVL-0n6kL-2" edge="1">
          <mxGeometry relative="1" as="geometry">
            <mxPoint x="552" y="710.58" as="sourcePoint" />
            <mxPoint x="782" y="710.58" as="targetPoint" />
          </mxGeometry>
        </mxCell>
        <mxCell id="4A9rfbyklD0xVL-0n6kL-7" style="edgeStyle=orthogonalEdgeStyle;rounded=0;orthogonalLoop=1;jettySize=auto;html=1;exitX=0;exitY=0.5;exitDx=0;exitDy=0;" parent="1" source="4A9rfbyklD0xVL-0n6kL-3" edge="1">
          <mxGeometry relative="1" as="geometry">
            <mxPoint x="486" y="711" as="sourcePoint" />
            <mxPoint x="215" y="711" as="targetPoint" />
          </mxGeometry>
        </mxCell>
        <mxCell id="4A9rfbyklD0xVL-0n6kL-8" value="Send frames" style="edgeLabel;html=1;align=center;verticalAlign=bottom;resizable=0;points=[];fontSize=10;labelPosition=center;verticalLabelPosition=top;textShadow=0;labelBorderColor=none;" parent="1" vertex="1" connectable="0">
          <mxGeometry x="315" y="678" as="geometry">
            <mxPoint x="14" y="22" as="offset" />
          </mxGeometry>
        </mxCell>
        <mxCell id="4A9rfbyklD0xVL-0n6kL-9" value="Request Exercise Details" style="edgeLabel;html=1;align=center;verticalAlign=bottom;resizable=0;points=[];fontSize=10;labelPosition=center;verticalLabelPosition=top;textShadow=0;labelBorderColor=none;" parent="1" vertex="1" connectable="0">
          <mxGeometry x="665" y="689" as="geometry">
            <mxPoint x="14" y="22" as="offset" />
          </mxGeometry>
        </mxCell>
        <mxCell id="4A9rfbyklD0xVL-0n6kL-10" value="Return Verification Results" style="edgeLabel;html=1;align=center;verticalAlign=bottom;resizable=0;points=[];fontSize=10;labelPosition=center;verticalLabelPosition=top;textShadow=0;labelBorderColor=none;" parent="1" vertex="1" connectable="0">
          <mxGeometry x="315" y="706" as="geometry">
            <mxPoint x="14" y="22" as="offset" />
          </mxGeometry>
        </mxCell>
        <mxCell id="4A9rfbyklD0xVL-0n6kL-13" value="Uses" style="edgeLabel;html=1;align=center;verticalAlign=bottom;resizable=0;points=[];fontSize=10;labelPosition=center;verticalLabelPosition=top;textShadow=0;labelBorderColor=none;rotation=90;" parent="1" vertex="1" connectable="0">
          <mxGeometry x="76" y="551" as="geometry" />
        </mxCell>
        <mxCell id="4A9rfbyklD0xVL-0n6kL-14" value="Search Criteria" style="edgeLabel;html=1;align=center;verticalAlign=bottom;resizable=0;points=[];fontSize=10;labelPosition=center;verticalLabelPosition=top;textShadow=0;labelBorderColor=none;labelBackgroundColor=none;" parent="1" vertex="1" connectable="0">
          <mxGeometry x="329" y="502" as="geometry" />
        </mxCell>
        <mxCell id="4A9rfbyklD0xVL-0n6kL-15" style="edgeStyle=orthogonalEdgeStyle;rounded=0;orthogonalLoop=1;jettySize=auto;html=1;entryX=0.968;entryY=0.636;entryDx=0;entryDy=0;entryPerimeter=0;" parent="1" target="4A9rfbyklD0xVL-0n6kL-3" edge="1">
          <mxGeometry relative="1" as="geometry">
            <mxPoint x="829.04" y="721" as="sourcePoint" />
            <mxPoint x="552" y="721.3599999999999" as="targetPoint" />
          </mxGeometry>
        </mxCell>
        <mxCell id="4A9rfbyklD0xVL-0n6kL-16" value="Retrieve Exercise Information" style="edgeLabel;html=1;align=center;verticalAlign=bottom;resizable=0;points=[];fontSize=10;labelPosition=center;verticalLabelPosition=top;textShadow=0;labelBorderColor=none;" parent="1" vertex="1" connectable="0">
          <mxGeometry x="665" y="715" as="geometry">
            <mxPoint x="14" y="22" as="offset" />
          </mxGeometry>
        </mxCell>
        <mxCell id="4A9rfbyklD0xVL-0n6kL-20" style="edgeStyle=orthogonalEdgeStyle;rounded=0;orthogonalLoop=1;jettySize=auto;html=1;exitX=0;exitY=0.5;exitDx=0;exitDy=0;entryX=1;entryY=0.5;entryDx=0;entryDy=0;" parent="1" source="4A9rfbyklD0xVL-0n6kL-17" target="4A9rfbyklD0xVL-0n6kL-19" edge="1">
          <mxGeometry relative="1" as="geometry">
            <Array as="points">
              <mxPoint x="975" y="632" />
            </Array>
          </mxGeometry>
        </mxCell>
        <mxCell id="4A9rfbyklD0xVL-0n6kL-17" value="&lt;font style=&quot;font-size: 16px;&quot;&gt;&lt;b style=&quot;&quot;&gt;DOCTOR&lt;/b&gt;&lt;/font&gt;" style="rounded=0;whiteSpace=wrap;html=1;fillColor=#0050ef;fontColor=#ffffff;strokeColor=#001DBC;" parent="1" vertex="1">
          <mxGeometry x="975" y="612" width="120" height="40" as="geometry" />
        </mxCell>
        <mxCell id="4A9rfbyklD0xVL-0n6kL-19" value="&lt;span style=&quot;font-size: 15px;&quot;&gt;View Prescription&lt;/span&gt;" style="ellipse;whiteSpace=wrap;html=1;" parent="1" vertex="1">
          <mxGeometry x="785" y="601" width="110" height="62" as="geometry" />
        </mxCell>
        <mxCell id="4A9rfbyklD0xVL-0n6kL-22" style="edgeStyle=orthogonalEdgeStyle;rounded=0;orthogonalLoop=1;jettySize=auto;html=1;exitX=0.5;exitY=0;exitDx=0;exitDy=0;entryX=0.093;entryY=1.011;entryDx=0;entryDy=0;entryPerimeter=0;" parent="1" source="4A9rfbyklD0xVL-0n6kL-19" target="4A9rfbyklD0xVL-0n6kL-1" edge="1">
          <mxGeometry relative="1" as="geometry" />
        </mxCell>
        <mxCell id="4A9rfbyklD0xVL-0n6kL-23" value="Edit Details" style="edgeLabel;html=1;align=center;verticalAlign=bottom;resizable=0;points=[];fontSize=10;labelPosition=center;verticalLabelPosition=top;textShadow=0;labelBorderColor=none;rotation=0;" parent="1" vertex="1" connectable="0">
          <mxGeometry x="945" y="599" as="geometry">
            <mxPoint x="-8" y="32" as="offset" />
          </mxGeometry>
        </mxCell>
        <mxCell id="4A9rfbyklD0xVL-0n6kL-24" value="Verify Status" style="edgeLabel;html=1;align=center;verticalAlign=bottom;resizable=0;points=[];fontSize=10;labelPosition=center;verticalLabelPosition=top;textShadow=0;labelBorderColor=none;rotation=270;" parent="1" vertex="1" connectable="0">
          <mxGeometry x="805" y="563" as="geometry">
            <mxPoint x="-8" y="32" as="offset" />
          </mxGeometry>
        </mxCell>
        <mxCell id="4A9rfbyklD0xVL-0n6kL-25" style="edgeStyle=orthogonalEdgeStyle;rounded=0;orthogonalLoop=1;jettySize=auto;html=1;exitX=0.5;exitY=0;exitDx=0;exitDy=0;entryX=0.093;entryY=1.011;entryDx=0;entryDy=0;entryPerimeter=0;" parent="1" edge="1">
          <mxGeometry relative="1" as="geometry">
            <mxPoint x="851.43" y="526" as="sourcePoint" />
            <mxPoint x="851.43" y="601" as="targetPoint" />
            <Array as="points">
              <mxPoint x="851.43" y="536" />
              <mxPoint x="851.43" y="536" />
            </Array>
          </mxGeometry>
        </mxCell>
        <mxCell id="4A9rfbyklD0xVL-0n6kL-26" value="Confirmation" style="edgeLabel;html=1;align=center;verticalAlign=bottom;resizable=0;points=[];fontSize=10;labelPosition=center;verticalLabelPosition=top;textShadow=0;labelBorderColor=none;rotation=90;" parent="1" vertex="1" connectable="0">
          <mxGeometry x="880" y="581" as="geometry">
            <mxPoint x="-16" y="24" as="offset" />
          </mxGeometry>
        </mxCell>
        <mxCell id="4A9rfbyklD0xVL-0n6kL-27" style="edgeStyle=orthogonalEdgeStyle;rounded=0;orthogonalLoop=1;jettySize=auto;html=1;exitX=0;exitY=0.5;exitDx=0;exitDy=0;entryX=1;entryY=0.5;entryDx=0;entryDy=0;" parent="1" edge="1">
          <mxGeometry relative="1" as="geometry">
            <mxPoint x="895" y="641" as="sourcePoint" />
            <mxPoint x="975" y="641" as="targetPoint" />
            <Array as="points">
              <mxPoint x="975" y="641" />
            </Array>
          </mxGeometry>
        </mxCell>
        <mxCell id="4A9rfbyklD0xVL-0n6kL-28" value="Success/Fail" style="edgeLabel;html=1;align=center;verticalAlign=bottom;resizable=0;points=[];fontSize=10;labelPosition=center;verticalLabelPosition=top;textShadow=0;labelBorderColor=none;rotation=0;" parent="1" vertex="1" connectable="0">
          <mxGeometry x="936" y="624" as="geometry">
            <mxPoint x="-8" y="32" as="offset" />
          </mxGeometry>
        </mxCell>
      </root>
    </mxGraphModel>
  </diagram>
</mxfile>
